# xmcd
#
# Track frame offsets:
#	150
#	21737
#	40310
#	60917
#	82517
#	98297
#	114857
#	127840
#	144640
#	161727
#	177795
#	197892
#	214095
#	231910
#	248795
#
# Disc length: 3551 seconds
#
# Revision: 2
# Processed by: cddbd v1.5.2PL0 Copyright (c) Steve Scherf et al.
# Submitted via: EasyCDDAExtractor 10.0.5.1
#
DISCID=bc0ddd0f
DTITLE=蔡國權 - 白金珍藏版之II
DYEAR=1987
DGENRE=Oldies
TTITLE0=傷心一吻
TTITLE1=愛的獨白
TTITLE2=我的愛神
TTITLE3=無心快語
TTITLE4=追憶
TTITLE5=不應再猶豫
TTITLE6=長夜
TTITLE7=是誰在我耳邊唱
TTITLE8=海厎針
TTITLE9=愛情傀儡
TTITLE10=一生愛您一個
TTITLE11=寒傲似冰
TTITLE12=童年
TTITLE13=歌聲背後
TTITLE14=再見也許不再會
EXTD=YEAR: 1987
EXTT0=
EXTT1=
EXTT2=
EXTT3=
EXTT4=
EXTT5=
EXTT6=
EXTT7=
EXTT8=
EXTT9=
EXTT10=
EXTT11=
EXTT12=
EXTT13=
EXTT14=
PLAYORDER=
